<svg width="120" height="160" viewBox="0 0 120 160" fill="none" xmlns="http://www.w3.org/2000/svg">
    <defs>
        <linearGradient id="gold-gradient" x1="0" y1="0" x2="120" y2="160" gradientUnits="userSpaceOnUse">
            <stop stop-color="#FFD700"/>
            <stop offset="0.5" stop-color="#FFF8DC"/>
            <stop offset="1" stop-color="#B8860B"/>
        </linearGradient>
        <radialGradient id="shine" cx="60" cy="50" r="40" gradientUnits="userSpaceOnUse">
            <stop stop-color="#FFFDE4" stop-opacity="0.8"/>
            <stop offset="0.7" stop-color="#FFD700" stop-opacity="0.2"/>
            <stop offset="1" stop-color="#FFD700" stop-opacity="0"/>
        </radialGradient>
        <linearGradient id="base-gradient" x1="30" y1="145" x2="90" y2="145" gradientUnits="userSpaceOnUse">
            <stop stop-color="#FFF8DC"/>
            <stop offset="1" stop-color="#FFD700"/>
        </linearGradient>
    </defs>
    <!-- Cup body with highlights and shadow -->
    <ellipse cx="60" cy="60" rx="38" ry="48" fill="url(#gold-gradient)" stroke="#B8860B" stroke-width="4"/>
    <ellipse cx="60" cy="55" rx="25" ry="15" fill="url(#shine)" />
    <!-- Cup rim for realism -->
    <ellipse cx="60" cy="30" rx="32" ry="10" fill="#FFF8DC" stroke="#B8860B" stroke-width="2" opacity="0.7"/>
    <!-- Handles with gradient and shadow -->
    <path d="M22 70 Q-5 40 32 35 Q25 60 22 70" fill="url(#gold-gradient)" stroke="#B8860B" stroke-width="3"/>
    <path d="M98 70 Q125 40 88 35 Q95 60 98 70" fill="url(#gold-gradient)" stroke="#B8860B" stroke-width="3"/>
    <!-- Stem with shadow -->
    <rect x="52" y="110" width="16" height="28" rx="7" fill="url(#gold-gradient)" stroke="#B8860B" stroke-width="3"/>
    <ellipse cx="60" cy="138" rx="12" ry="5" fill="#B8860B" opacity="0.3"/>
    <!-- Base with gradient and shadow -->
    <ellipse cx="60" cy="145" rx="28" ry="9" fill="url(#base-gradient)" stroke="#B8860B" stroke-width="3"/>
    <ellipse cx="60" cy="152" rx="18" ry="4" fill="#B8860B" opacity="0.2"/>
    <!-- Subtle shine on cup body -->
    <path d="M50 45 Q55 35 70 40 Q65 55 50 45" fill="#FFFDE4" opacity="0.3"/>
</svg>